# xmcd CD database file
#
# Track frame offsets:
#	150
#	17725
#	31742
#	54238
#	76995
#	109167
#	120304
#	146499
#	160506
#	175888
#	189642
#	205503
#	221123
#	229278
#	249493
#
# Disc length: 3504 seconds
#
# Revision: 2
# Processed by: cddbd v1.5.2PL0 Copyright (c) Steve Scherf et al.
# Submitted via: CDex 1.70beta2
#
DISCID=be0dae0f
DTITLE=Pappo´s Blues - Caso Cerrado Vol.8
DYEAR=1995
DGENRE=Blues
TTITLE0=Tren azul
TTITLE1=Ruta 66
TTITLE2=Solo en este mundo
TTITLE3=Yo me quedo con Lucy
TTITLE4=Blues para mi guitarra
TTITLE5=Castillos mágicos españoles
TTITLE6=Algunos deslices
TTITLE7=People don't care
TTITLE8=Paramount souffle
TTITLE9=Penetieso blues
TTITLE10=P.B.A. Boogie
TTITLE11=Duendes
TTITLE12=Perro en la vereda
TTITLE13=Tomé demasiado
TTITLE14=Ruta 66 VideoClip
EXTD=YEAR: 1995
EXTT0=
EXTT1=
EXTT2=
EXTT3=
EXTT4=
EXTT5=
EXTT6=
EXTT7=
EXTT8=
EXTT9=
EXTT10=
EXTT11=
EXTT12=
EXTT13=
EXTT14=
PLAYORDER=
